<?xml version="1.0" standalone="no"?>
<!DOCTYPE svg PUBLIC "-//W3C//DTD SVG 20010904//EN"
 "http://www.w3.org/TR/2001/REC-SVG-20010904/DTD/svg10.dtd">
<svg version="1.0" xmlns="http://www.w3.org/2000/svg"
 width="417.000000pt" height="127.000000pt" viewBox="0 0 417.000000 127.000000"
 preserveAspectRatio="xMidYMid meet">
<metadata>
Created by potrace 1.15, written by Peter Selinger 2001-2017
</metadata>
<g transform="translate(0.000000,127.000000) scale(0.100000,-0.100000)"
fill="#000000" stroke="none">
<path d="M475 1149 c-189 -66 -187 -65 -183 -91 5 -36 31 -44 85 -25 26 9 101
35 166 58 121 43 151 65 126 95 -18 21 -42 17 -194 -37z"/>
<path d="M870 1131 c-8 -5 -143 -52 -300 -105 -421 -143 -458 -157 -464 -172
-7 -19 2 -41 20 -48 8 -3 128 33 267 80 139 47 321 109 405 137 127 43 154 56
158 74 3 12 3 27 -1 32 -7 13 -64 14 -85 2z"/>
<path d="M1265 1107 c-79 -28 -90 -35 -90 -56 0 -44 24 -47 121 -14 94 33 116
51 98 81 -16 25 -30 24 -129 -11z"/>
<path d="M1406 996 c-200 -70 -216 -78 -216 -106 0 -45 30 -42 224 25 103 36
196 70 207 75 33 18 17 71 -20 69 -9 -1 -96 -29 -195 -63z"/>
<path d="M855 968 c-189 -66 -625 -217 -723 -250 -63 -21 -87 -44 -76 -72 13
-33 -28 -45 679 199 171 59 318 109 328 112 19 6 33 45 22 62 -12 20 -59 9
-230 -51z"/>
<path d="M1800 655 l0 -325 30 0 30 0 0 325 0 325 -30 0 -30 0 0 -325z"/>
<path d="M2880 655 l0 -325 30 0 30 0 0 160 0 160 62 0 c123 0 198 65 198 173
0 67 -17 107 -59 136 -25 18 -44 21 -145 21 l-116 0 0 -325z m217 272 c22 -22
28 -37 31 -89 3 -53 0 -68 -20 -98 -28 -42 -80 -70 -130 -70 l-38 0 0 146 0
146 65 -4 c55 -3 70 -8 92 -31z"/>
<path d="M2160 818 c0 -151 0 -151 -20 -133 -12 11 -41 20 -73 23 -46 4 -57 1
-84 -22 -40 -34 -58 -104 -50 -197 6 -74 25 -119 59 -143 29 -21 117 -21 146
0 20 14 22 14 22 0 0 -11 10 -16 30 -16 l30 0 0 306 c0 280 -2 308 -17 320
-40 30 -43 21 -43 -138z m-57 -149 c48 -25 57 -48 57 -155 l0 -102 -35 -31
c-39 -34 -47 -36 -74 -21 -59 31 -69 250 -15 305 18 18 37 19 67 4z"/>
<path d="M1455 852 c-105 -37 -196 -71 -203 -75 -6 -5 -12 -19 -12 -32 0 -43
35 -38 240 33 169 59 195 72 198 91 3 21 -13 52 -27 50 -3 0 -92 -30 -196 -67z"/>
<path d="M725 763 c-214 -74 -444 -154 -510 -176 -106 -37 -120 -45 -123 -66
-8 -57 13 -54 276 36 583 200 707 242 709 240 1 -1 -12 -44 -29 -95 -34 -105
-31 -116 32 -127 l38 -6 -95 -135 c-52 -74 -96 -134 -97 -134 -2 0 8 45 22 99
30 120 26 136 -27 128 l-38 -5 16 43 c13 37 13 45 1 59 -7 10 -23 16 -34 14
-16 -2 -28 -23 -54 -93 -40 -105 -36 -121 26 -118 l39 2 -43 -172 c-44 -172
-44 -172 -23 -189 27 -23 40 -16 85 50 22 31 103 148 182 260 78 113 142 213
142 223 0 21 -21 34 -72 43 l-36 7 36 108 c30 92 34 112 23 125 -8 9 -23 15
-35 15 -11 -1 -196 -62 -411 -136z"/>
<path d="M1425 679 c-77 -28 -144 -54 -149 -59 -14 -14 2 -60 21 -60 22 0 284
90 301 103 18 14 15 45 -7 57 -11 5 -21 10 -23 9 -2 0 -66 -23 -143 -50z"/>
<path d="M2588 704 c-16 -8 -28 -21 -28 -29 0 -20 12 -19 54 6 63 37 117 9
132 -68 l7 -33 -63 0 c-69 0 -112 -19 -129 -57 -6 -12 -19 -23 -29 -23 -13 0
-22 -12 -31 -42 -28 -91 -108 -128 -150 -69 -12 16 -24 44 -27 63 -3 18 -7 43
-10 56 -4 22 -4 22 117 22 l121 0 -7 37 c-17 91 -71 143 -147 143 -45 0 -54
-4 -88 -38 -45 -45 -64 -105 -57 -179 10 -101 66 -163 147 -163 68 0 117 41
140 118 8 26 8 26 9 -6 1 -46 25 -87 58 -100 31 -13 233 -14 233 -2 0 4 -7 13
-15 20 -12 10 -15 39 -15 146 0 149 -7 176 -55 199 -41 19 -131 19 -167 -1z
m-146 -45 c10 -14 25 -43 33 -65 l13 -39 -80 -3 c-44 -2 -83 -1 -85 2 -11 11
11 70 39 102 35 39 53 40 80 3z m292 -105 c13 -5 16 -23 16 -88 0 -79 -1 -82
-28 -98 -37 -22 -68 -7 -94 44 -44 84 24 173 106 142z"/>
<path d="M3268 704 c-16 -8 -28 -21 -28 -29 0 -20 12 -19 54 6 63 37 117 9
132 -68 l7 -33 -63 0 c-101 0 -140 -35 -140 -126 0 -57 21 -98 57 -112 31 -13
233 -14 233 -2 0 4 -7 13 -15 20 -12 10 -15 39 -15 146 0 149 -7 176 -55 199
-41 19 -131 19 -167 -1z m146 -150 c13 -5 16 -23 16 -88 0 -79 -1 -82 -28 -98
-37 -22 -68 -7 -94 44 -44 84 24 173 106 142z"/>
<path d="M3588 704 c-16 -8 -28 -21 -28 -29 0 -20 12 -19 54 6 63 37 117 9
132 -68 l7 -33 -63 0 c-101 0 -140 -35 -140 -126 0 -57 21 -98 57 -112 31 -13
233 -14 233 -2 0 4 -7 13 -15 20 -12 10 -15 39 -15 146 0 149 -7 176 -55 199
-41 19 -131 19 -167 -1z m146 -150 c13 -5 16 -23 16 -88 0 -79 -1 -82 -28 -98
-37 -22 -68 -7 -94 44 -44 84 24 173 106 142z"/>
<path d="M3935 689 c-34 -20 -45 -41 -45 -91 0 -59 31 -98 78 -98 72 0 107
-76 57 -125 -33 -34 -62 -31 -101 10 -18 19 -37 35 -43 35 -22 0 -10 -39 20
-64 42 -35 125 -37 157 -3 24 26 42 69 42 102 0 33 -46 85 -76 85 -74 0 -122
72 -76 113 25 23 64 21 95 -3 26 -20 57 -27 57 -12 0 5 -11 19 -25 32 -28 26
-108 37 -140 19z"/>
<path d="M480 517 c-129 -45 -241 -86 -248 -90 -18 -12 -15 -45 7 -56 15 -8
73 8 267 75 137 47 253 89 257 93 5 5 7 19 5 32 -2 17 -10 25 -28 26 -14 1
-131 -35 -260 -80z"/>
<path d="M561 385 c-139 -50 -153 -59 -149 -89 5 -35 42 -31 185 20 134 47
156 62 136 93 -16 26 -42 23 -172 -24z"/>
</g>
</svg>
